<svg width="500" height="400" viewBox="0 0 500 400" fill="none" xmlns="http://www.w3.org/2000/svg">
  <!-- Background -->
  <rect width="500" height="400" rx="16" fill="#F8FAFC"/>
  
  <!-- Dashboard Frame -->
  <rect x="40" y="40" width="420" height="320" rx="12" fill="white" stroke="#E5E7EB" stroke-width="2"/>
  
  <!-- Sidebar -->
  <rect x="40" y="40" width="80" height="320" fill="#1F2B59" rx="12 0 0 12"/>
  
  <!-- Sidebar Icons -->
  <rect x="60" y="80" width="40" height="8" rx="4" fill="white" fill-opacity="0.7"/>
  <rect x="60" y="120" width="40" height="8" rx="4" fill="white" fill-opacity="0.5"/>
  <rect x="60" y="160" width="40" height="8" rx="4" fill="white" fill-opacity="0.5"/>
  <rect x="60" y="200" width="40" height="8" rx="4" fill="white" fill-opacity="0.5"/>
  <rect x="60" y="240" width="40" height="8" rx="4" fill="white" fill-opacity="0.5"/>
  <rect x="60" y="280" width="40" height="8" rx="4" fill="white" fill-opacity="0.5"/>
  
  <!-- Header -->
  <rect x="120" y="40" width="340" height="60" fill="white" stroke="#E5E7EB" stroke-width="2"/>
  <rect x="340" y="55" width="100" height="30" rx="15" fill="#2673EC"/>
  <rect x="355" y="67" width="70" height="6" rx="3" fill="white"/>
  
  <!-- Main Content Area -->
  <rect x="140" y="120" width="300" height="100" rx="8" fill="#E6F0FF"/>
  
  <!-- Chart 1 -->
  <path d="M160 180L190 150L220 170L250 130L280 150L310 120L340 140L370 110L400 130" stroke="#2673EC" stroke-width="3" stroke-linecap="round" stroke-linejoin="round"/>
  <circle cx="160" cy="180" r="4" fill="#2673EC"/>
  <circle cx="190" cy="150" r="4" fill="#2673EC"/>
  <circle cx="220" cy="170" r="4" fill="#2673EC"/>
  <circle cx="250" cy="130" r="4" fill="#2673EC"/>
  <circle cx="280" cy="150" r="4" fill="#2673EC"/>
  <circle cx="310" cy="120" r="4" fill="#2673EC"/>
  <circle cx="340" cy="140" r="4" fill="#2673EC"/>
  <circle cx="370" cy="110" r="4" fill="#2673EC"/>
  <circle cx="400" cy="130" r="4" fill="#2673EC"/>
  
  <!-- Stats Cards -->
  <rect x="140" y="240" width="90" height="100" rx="8" fill="white" stroke="#E5E7EB" stroke-width="2"/>
  <rect x="155" y="260" width="60" height="6" rx="3" fill="#1F2B59"/>
  <rect x="155" y="280" width="40" height="12" rx="3" fill="#2673EC"/>
  <rect x="155" y="300" width="60" height="6" rx="3" fill="#E5E7EB"/>
  <rect x="155" y="315" width="40" height="6" rx="3" fill="#E5E7EB"/>
  
  <rect x="245" y="240" width="90" height="100" rx="8" fill="white" stroke="#E5E7EB" stroke-width="2"/>
  <rect x="260" y="260" width="60" height="6" rx="3" fill="#1F2B59"/>
  <rect x="260" y="280" width="40" height="12" rx="3" fill="#2673EC"/>
  <rect x="260" y="300" width="60" height="6" rx="3" fill="#E5E7EB"/>
  <rect x="260" y="315" width="40" height="6" rx="3" fill="#E5E7EB"/>
  
  <rect x="350" y="240" width="90" height="100" rx="8" fill="white" stroke="#E5E7EB" stroke-width="2"/>
  <rect x="365" y="260" width="60" height="6" rx="3" fill="#1F2B59"/>
  <rect x="365" y="280" width="40" height="12" rx="3" fill="#2673EC"/>
  <rect x="365" y="300" width="60" height="6" rx="3" fill="#E5E7EB"/>
  <rect x="365" y="315" width="40" height="6" rx="3" fill="#E5E7EB"/>
  
  <!-- Decorative Elements -->
  <circle cx="440" cy="70" r="10" fill="#F8FAFC" stroke="#E5E7EB" stroke-width="2"/>
  <path d="M436 70L440 74L444 70" stroke="#1F2B59" stroke-width="2" stroke-linecap="round" stroke-linejoin="round"/>
</svg> 