<svg width="16" height="16" viewBox="0 0 16 16" fill="none" xmlns="http://www.w3.org/2000/svg">
  <path d="M13.3333 1.33333H2.66667C1.93333 1.33333 1.33333 1.93333 1.33333 2.66667V13.3333C1.33333 14.0667 1.93333 14.6667 2.66667 14.6667H13.3333C14.0667 14.6667 14.6667 14.0667 14.6667 13.3333V2.66667C14.6667 1.93333 14.0667 1.33333 13.3333 1.33333ZM5.33333 12H3.33333V6H5.33333V12ZM4.33333 5.06667C3.6 5.06667 3 4.46667 3 3.73333C3 3 3.6 2.4 4.33333 2.4C5.06667 2.4 5.66667 3 5.66667 3.73333C5.66667 4.46667 5.06667 5.06667 4.33333 5.06667ZM13 12H11V8.6C11 6.86667 8.66667 7 8.66667 8.6V12H6.66667V6H8.66667V7C9.4 5.66667 13 5.53333 13 8.33333V12Z" fill="white"/>
</svg> 