<svg width="16" height="16" viewBox="0 0 16 16" fill="none" xmlns="http://www.w3.org/2000/svg">
  <path d="M14.6667 3.66667C14.1667 3.9 13.6333 4.05 13.0667 4.13333C13.65 3.8 14.1 3.26667 14.3 2.63333C13.7667 2.95 13.1667 3.17333 12.5333 3.29333C12.0333 2.75333 11.3 2.41667 10.5 2.41667C8.95 2.41667 7.7 3.66667 7.7 5.21667C7.7 5.45 7.73333 5.68333 7.78333 5.9C5.46667 5.78333 3.38333 4.68333 1.98333 2.99333C1.73333 3.43333 1.58333 3.96667 1.58333 4.53333C1.58333 5.61667 2.13333 6.56667 2.96667 7.13333C2.51667 7.11667 2.1 7 1.73333 7.8C1.73333 7.8 1.73333 7.8 1.73333 7.83333C1.73333 9.2 2.68333 10.35 3.95 10.6167C3.7 10.6833 3.45 10.7167 3.18333 10.7167C3 10.7167 2.81667 10.7 2.65 10.6667C3.01667 11.8 4.08333 12.6333 5.33333 12.6667C4.33333 13.4333 3.08333 13.9 1.71667 13.9C1.48333 13.9 1.25 13.8833 1.01667 13.8667C2.28333 14.6833 3.78333 15.1667 5.4 15.1667C10.5 15.1667 13.2833 10.7667 13.2833 6.91667C13.2833 6.78333 13.2833 6.65 13.2833 6.51667C13.8167 6.13333 14.3 5.65 14.6667 5.1V3.66667Z" fill="white"/>
</svg>